<svg width="32" height="32" viewBox="0 0 32 32" fill="none" xmlns="http://www.w3.org/2000/svg">
  <rect width="32" height="32" rx="8" fill="#3B82F6"/>
  <path d="M8 12C8 10.8954 8.89543 10 10 10H22C23.1046 10 24 10.8954 24 12V20C24 21.1046 23.1046 22 22 22H10C8.89543 22 8 21.1046 8 20V12Z" fill="white"/>
  <circle cx="20" cy="16" r="1.5" fill="#3B82F6"/>
  <path d="M12 14H18V18H12V14Z" fill="#3B82F6" fill-opacity="0.2"/>
  <path d="M10 8C10 7.44772 10.4477 7 11 7H21C21.5523 7 22 7.44772 22 8V9H10V8Z" fill="white" fill-opacity="0.7"/>
</svg>
